<svg width="36" height="19" viewBox="0 0 36 19" fill="none" xmlns="http://www.w3.org/2000/svg">
<path d="M1.14773 15V3.36364H3.25568V8.71023H3.39773L7.9375 3.36364H10.5114L6.01136 8.58523L10.5511 15H8.01705L4.54545 10.0114L3.25568 11.5341V15H1.14773ZM11.9759 15V3.36364H16.3395C17.2334 3.36364 17.9834 3.51894 18.5895 3.82955C19.1993 4.14015 19.6596 4.57576 19.9702 5.13636C20.2846 5.69318 20.4418 6.3428 20.4418 7.08523C20.4418 7.83144 20.2827 8.47917 19.9645 9.02841C19.6501 9.57386 19.1861 9.99621 18.5724 10.2955C17.9588 10.5909 17.205 10.7386 16.3111 10.7386H13.2031V8.98864H16.027C16.5497 8.98864 16.9777 8.91667 17.3111 8.77273C17.6444 8.625 17.8906 8.41098 18.0497 8.13068C18.2126 7.84659 18.294 7.49811 18.294 7.08523C18.294 6.67235 18.2126 6.32008 18.0497 6.02841C17.8868 5.73295 17.6387 5.50947 17.3054 5.35795C16.9721 5.20265 16.5421 5.125 16.0156 5.125H14.0838V15H11.9759ZM17.9872 9.72727L20.8679 15H18.5156L15.6861 9.72727H17.9872Z" fill="black"/>
<path d="M32 11L28.5359 7.25L35.4641 7.25L32 11Z" fill="black"/>
</svg>
